<svg width="21" height="20" viewBox="0 0 21 20" fill="none" xmlns="http://www.w3.org/2000/svg">
<path fill-rule="evenodd" clip-rule="evenodd" d="M7.103 1.799C7.52496 1.31223 8.04673 0.921956 8.63287 0.654682C9.21901 0.387407 9.8558 0.24939 10.5 0.250002C11.857 0.250002 13.073 0.850002 13.897 1.799C14.5397 1.75311 15.1847 1.84609 15.7883 2.07161C16.3919 2.29713 16.9399 2.64992 17.395 3.106C17.8509 3.56106 18.2036 4.10888 18.4291 4.71226C18.6546 5.31564 18.7477 5.96047 18.702 6.603C19.1886 7.02505 19.5787 7.54686 19.8458 8.133C20.1129 8.71913 20.2507 9.35588 20.25 10C20.2506 10.6442 20.1126 11.281 19.8453 11.8671C19.578 12.4533 19.1878 12.975 18.701 13.397C18.7467 14.0395 18.6536 14.6844 18.4281 15.2877C18.2026 15.8911 17.8499 16.4389 17.394 16.894C16.9389 17.3499 16.3911 17.7026 15.7877 17.9281C15.1844 18.1536 14.5395 18.2467 13.897 18.201C13.475 18.6878 12.9533 19.078 12.3671 19.3453C11.781 19.6126 11.1442 19.7506 10.5 19.75C9.8558 19.7506 9.21901 19.6126 8.63287 19.3453C8.04673 19.078 7.52496 18.6878 7.103 18.201C6.46038 18.247 5.81538 18.1542 5.21181 17.9289C4.60824 17.7035 4.06023 17.3509 3.605 16.895C3.14897 16.4398 2.79622 15.8919 2.5707 15.2883C2.34518 14.6847 2.25218 14.0397 2.298 13.397C1.81141 12.9749 1.42133 12.4531 1.15423 11.867C0.887128 11.2809 0.749266 10.6441 0.750003 10C0.750003 8.643 1.35 7.427 2.299 6.603C2.25326 5.96047 2.3463 5.31562 2.57182 4.71222C2.79734 4.10883 3.15005 3.56103 3.606 3.106C4.06103 2.65005 4.60883 2.29734 5.21222 2.07182C5.81562 1.8463 6.46047 1.75326 7.103 1.799ZM14.11 8.186C14.17 8.10605 14.2134 8.01492 14.2377 7.91795C14.262 7.82098 14.2666 7.72014 14.2514 7.62136C14.2361 7.52257 14.2013 7.42783 14.1489 7.3427C14.0965 7.25757 14.0276 7.18378 13.9463 7.12565C13.8649 7.06753 13.7728 7.02624 13.6753 7.00423C13.5778 6.98222 13.4769 6.97992 13.3785 6.99746C13.2801 7.01501 13.1862 7.05205 13.1023 7.10641C13.0184 7.16077 12.9462 7.23135 12.89 7.314L9.654 11.844L8.03 10.22C7.88783 10.0875 7.69978 10.0154 7.50548 10.0188C7.31118 10.0223 7.12579 10.101 6.98838 10.2384C6.85097 10.3758 6.77226 10.5612 6.76883 10.7555C6.7654 10.9498 6.83752 11.1378 6.97 11.28L9.22 13.53C9.29699 13.6069 9.3898 13.6662 9.49199 13.7036C9.59418 13.7411 9.7033 13.7559 9.81177 13.7469C9.92024 13.738 10.0255 13.7055 10.1201 13.6519C10.2148 13.5982 10.2967 13.5245 10.36 13.436L14.11 8.186Z" fill="#FEFEFE"/>
</svg>
