<svg width="32px" height="33px" viewBox="0 0 32 33" fill="none" xmlns="http://www.w3.org/2000/svg" transform="rotate(0) scale(1, 1)">
<path d="M15.4454 0L0 5.57859V27.2383L15.4454 32.8916L31.266 27.2383V5.56629L15.4454 0ZM16.0868 1.54995L29.6506 6.32632L16.0887 8.76547L16.0868 1.54995ZM14.8094 1.56225V8.75229L1.60269 6.32632L14.8094 1.56225ZM14.8094 31.3285L1.60541 26.4959L14.8094 24.2623V31.3285ZM14.8094 23.9522L1.28197 26.2455V6.57059L14.8094 9.07476V23.9522ZM16.0914 31.3408V24.2623L29.6534 26.4932L16.0914 31.3408ZM29.9823 26.2455L16.0887 23.9399V9.09058L29.9823 6.57059V26.2455Z" fill="#000000"/>
</svg>