<svg width="120" height="33" viewBox="0 0 120 33" fill="none" xmlns="http://www.w3.org/2000/svg">
<path d="M15.4454 0.0541992L0 5.63279V27.2925L15.4454 32.9458L31.266 27.2925V5.62049L15.4454 0.0541992ZM16.0868 1.60415L29.6506 6.38052L16.0887 8.81967L16.0868 1.60415ZM14.8094 1.61645V8.80649L1.60269 6.38052L14.8094 1.61645ZM14.8094 31.3827L1.60541 26.5501L14.8094 24.3165V31.3827ZM14.8094 24.0064L1.28197 26.2997V6.62479L14.8094 9.12896V24.0064ZM16.0914 31.395V24.3165L29.6534 26.5474L16.0914 31.395ZM29.9823 26.2997L16.0887 23.9941V9.14478L29.9823 6.62479V26.2997Z" fill="black"/>
<path d="M52.101 18.4726V26.449H47.699V18.4181L39.8591 6.4939H44.7499L49.9877 14.8341L55.5444 6.4939H60.4352L52.101 18.4726Z" fill="black"/>
<path d="M78.1173 26.449H73.7472L71.8665 22.0268H62.403L60.6087 26.449H56.1813L64.8625 6.4939H69.2617L78.1173 26.449ZM63.7922 18.6404H70.4192L67.0575 10.6921L63.7922 18.6404Z" fill="black"/>
<path d="M100.169 26.449H95.7999L93.9183 22.0268H84.4557L82.6613 26.449H78.233L86.9152 6.4939H91.3144L100.169 26.449ZM85.8449 18.6404H92.4719L89.1148 10.6921L85.8449 18.6404Z" fill="black"/>
<path d="M119.819 20.4875C119.839 22.4844 119.062 24.0567 117.49 25.2042C115.917 26.3517 113.723 26.9252 110.906 26.9246C107.608 26.9246 105.148 26.3417 103.526 25.1761C101.905 24.0104 100.959 22.1119 100.691 19.4806H105.233C105.388 20.8238 105.923 21.8079 106.84 22.4329C107.756 23.0579 109.14 23.3704 110.993 23.3704C112.478 23.3704 113.616 23.1361 114.408 22.6675C115.2 22.1989 115.595 21.527 115.594 20.6519C115.594 20.055 115.402 19.584 115.016 19.239C114.63 18.894 113.974 18.6186 113.048 18.413C112.609 18.3063 112.164 18.2224 111.716 18.1617C111.195 18.0874 110.385 17.9939 109.285 17.8815C106.353 17.53 104.324 16.9003 103.198 15.9923C102.073 15.0844 101.509 13.7644 101.506 12.0322C101.506 10.2035 102.258 8.7528 103.762 7.68025C105.267 6.60771 107.341 6.07114 109.984 6.07056C112.975 6.07056 115.261 6.62118 116.843 7.72243C118.424 8.82368 119.333 10.4931 119.568 12.7308H115.14C114.96 11.5774 114.467 10.7494 113.66 10.2468C112.853 9.74422 111.599 9.49234 109.898 9.49117C108.547 9.49117 107.525 9.70116 106.831 10.1212C106.136 10.5412 105.789 11.1521 105.788 11.954C105.788 12.7196 106.15 13.2843 106.873 13.6481C107.596 14.0119 109.124 14.3132 111.456 14.5522C114.6 14.9037 116.781 15.5381 117.998 16.4554C119.214 17.3727 119.822 18.7168 119.819 20.4875ZM116.792 25.6716L118.965 25.1576V23.6112C118.666 23.494 118.337 23.4639 118.02 23.5247C117.703 23.5854 117.412 23.7343 117.181 23.953C116.95 24.1718 116.79 24.451 116.721 24.7562C116.652 25.0615 116.677 25.3796 116.792 25.6716Z" fill="black"/>
<path d="M116.792 25.6698C116.89 25.9184 117.051 26.1393 117.26 26.3128C117.468 26.4863 117.719 26.6068 117.987 26.6635C118.256 26.7203 118.536 26.7114 118.8 26.6378C119.064 26.5641 119.306 26.428 119.502 26.2417C119.699 26.0554 119.844 25.8247 119.926 25.5704C120.007 25.3162 120.022 25.0463 119.969 24.7852C119.915 24.5241 119.796 24.2799 119.62 24.0746C119.445 23.8694 119.22 23.7095 118.965 23.6094C118.728 24.044 118.416 24.4365 118.043 24.7701C117.648 25.0979 117.23 25.3986 116.792 25.6698Z" fill="black"/>
</svg>
